<svg width="43" height="45" viewBox="0 0 43 45" fill="none" xmlns="http://www.w3.org/2000/svg">
<path d="M38.6055 19.6875C39.2207 19.6875 39.792 19.7974 40.3193 20.0171C40.8467 20.2368 41.3154 20.5371 41.7256 20.918C42.1357 21.2988 42.4434 21.7603 42.6484 22.3022C42.8535 22.8442 42.9707 23.4229 43 24.0381C43 24.6094 42.8901 25.166 42.6704 25.708C42.4507 26.25 42.1357 26.7261 41.7256 27.1362L25.9712 42.8906L17.6875 44.9561L19.7529 36.6724L35.5073 20.9399C35.9321 20.5151 36.4082 20.2002 36.9355 19.9951C37.4629 19.79 38.0195 19.6875 38.6055 19.6875ZM40.1875 24.0381C40.1875 23.5693 40.041 23.1958 39.748 22.9175C39.4551 22.6392 39.0742 22.5 38.6055 22.5C38.4004 22.5 38.2026 22.5293 38.0122 22.5879C37.8218 22.6465 37.6533 22.7563 37.5068 22.9175L22.3018 38.1226L21.5547 41.0889L24.521 40.3418L39.7261 25.1587C40.0337 24.8511 40.1875 24.4775 40.1875 24.0381ZM3.625 2.8125V42.1875H14.7432L14.062 45H0.8125V0H25.312L37.375 12.063V16.2817C36.833 16.355 36.3496 16.4648 35.9248 16.6113C35.5 16.7578 35.0459 16.9849 34.5625 17.2925V14.0625H23.3125V2.8125H3.625ZM26.125 4.81201V11.25H32.563L26.125 4.81201ZM28.9375 19.6875V22.5H9.25V19.6875H28.9375ZM9.25 33.75V30.9375H20.522L17.7095 33.75H9.25ZM26.147 25.3125L23.3345 28.125H9.25V25.3125H26.147Z" fill="#444444"/>
</svg>
