<svg width="42" height="40" viewBox="0 0 42 40" fill="none" xmlns="http://www.w3.org/2000/svg">
<path fill-rule="evenodd" clip-rule="evenodd" d="M6.41699 14.7501C6.41699 10.8823 7.95345 7.17301 10.6884 4.43811C13.4233 1.7032 17.1326 0.166748 21.0003 0.166748C24.8681 0.166748 28.5774 1.7032 31.3123 4.43811C34.0472 7.17301 35.5837 10.8823 35.5837 14.7501V16.9063C39.117 17.4126 41.8337 20.4522 41.8337 24.1251V24.6459C41.8334 25.5493 41.6523 26.4435 41.3012 27.2758C40.9501 28.1081 40.4359 28.8618 39.789 29.4923C39.1421 30.1229 38.3756 30.6176 37.5346 30.9474C36.6936 31.2772 35.7951 31.4354 34.892 31.4126C33.3503 35.8292 29.4295 38.8063 25.1982 39.5605C24.2191 39.9188 23.0607 39.7501 22.042 39.7501C21.2132 39.7501 20.4183 39.4208 19.8323 38.8348C19.2462 38.2487 18.917 37.4539 18.917 36.6251C18.917 35.7963 19.2462 35.0014 19.8323 34.4154C20.4183 33.8293 21.2132 33.5001 22.042 33.5001H24.1253C24.6145 33.5 25.0969 33.6147 25.5337 33.8351C25.9704 34.0555 26.3493 34.3753 26.6399 34.7688C29.3399 33.4834 31.417 30.7688 31.417 27.2501V14.7501C31.417 11.9874 30.3195 9.33789 28.366 7.38439C26.4125 5.43088 23.763 4.33341 21.0003 4.33341C18.2377 4.33341 15.5881 5.43088 13.6346 7.38439C11.6811 9.33789 10.5837 11.9874 10.5837 14.7501V27.7709C10.5837 28.7378 10.1995 29.6652 9.51582 30.3489C8.83209 31.0326 7.90476 31.4167 6.93783 31.4167C5.14209 31.4167 3.4199 30.7034 2.15012 29.4336C0.880346 28.1638 0.166992 26.4417 0.166992 24.6459V24.1251C0.166542 22.3714 0.798158 20.6762 1.94606 19.3504C3.09397 18.0246 4.68126 17.1569 6.41699 16.9063V14.7501ZM6.41699 21.1772C5.80745 21.3927 5.27976 21.7919 4.90663 22.3199C4.53351 22.8479 4.33332 23.4786 4.33366 24.1251V24.6459C4.33366 25.9063 5.22949 26.9584 6.41699 27.198V21.1772ZM35.5837 21.1772V27.198C36.7712 26.9563 37.667 25.9063 37.667 24.6459V24.1251C37.6673 23.4786 37.4671 22.8479 37.094 22.3199C36.7209 21.7919 36.1932 21.3927 35.5837 21.1772Z" fill="#444444"/>
</svg>
