<svg width="28" height="28" viewBox="0 0 28 28" fill="none" xmlns="http://www.w3.org/2000/svg">
<path d="M13.9998 3.5C20.7665 3.5 26.251 7.77467 26.251 13.0492C26.251 18.3225 20.7665 22.5972 14.001 22.5972C13.3273 22.5975 12.6543 22.5546 11.9861 22.4688L6.84348 25.8323C6.25898 26.1415 6.05248 26.1077 6.29281 25.3505L7.33348 21.0595C3.97348 19.3562 1.75098 16.4045 1.75098 13.0492C1.75098 7.77583 7.23431 3.5 14.001 3.5H13.9998ZM20.8925 12.9033L22.6075 11.242C22.7064 11.1392 22.7616 11.0021 22.7615 10.8594C22.7613 10.7167 22.7058 10.5797 22.6066 10.4771C22.5073 10.3746 22.3722 10.3146 22.2296 10.3097C22.087 10.3048 21.9481 10.3555 21.8421 10.451L19.5928 12.628V10.829C19.5928 10.683 19.5348 10.5429 19.4315 10.4396C19.3283 10.3364 19.1882 10.2783 19.0421 10.2783C18.8961 10.2783 18.756 10.3364 18.6528 10.4396C18.5495 10.5429 18.4915 10.683 18.4915 10.829V13.8122C18.4709 13.8973 18.4709 13.9861 18.4915 14.0712V15.75C18.4915 15.896 18.5495 16.0361 18.6528 16.1394C18.756 16.2427 18.8961 16.3007 19.0421 16.3007C19.1882 16.3007 19.3283 16.2427 19.4315 16.1394C19.5348 16.0361 19.5928 15.896 19.5928 15.75V14.1598L20.091 13.678L21.757 16.0498C21.7986 16.109 21.8514 16.1595 21.9125 16.1983C21.9736 16.2371 22.0417 16.2634 22.113 16.2759C22.1843 16.2884 22.2573 16.2867 22.328 16.2709C22.3986 16.2551 22.4654 16.2256 22.5246 16.184C22.5839 16.1424 22.6343 16.0896 22.6731 16.0285C22.7119 15.9674 22.7383 15.8992 22.7507 15.828C22.7632 15.7567 22.7615 15.6836 22.7457 15.613C22.7299 15.5424 22.7004 15.4755 22.6588 15.4163L20.8925 12.9022V12.9033ZM17.4415 15.148H15.7381V10.8465C15.7316 10.705 15.6708 10.5714 15.5684 10.4736C15.4659 10.3758 15.3297 10.3212 15.1881 10.3212C15.0464 10.3212 14.9102 10.3758 14.8077 10.4736C14.7053 10.5714 14.6445 10.705 14.638 10.8465V15.6987C14.638 16.002 14.883 16.2493 15.1875 16.2493H17.4415C17.5875 16.2493 17.7276 16.1913 17.8309 16.088C17.9341 15.9848 17.9921 15.8447 17.9921 15.6987C17.9921 15.5526 17.9341 15.4126 17.8309 15.3093C17.7276 15.206 17.5875 15.148 17.4415 15.148ZM10.6083 13.8752L11.4203 11.8825L12.1646 13.874L10.6083 13.8752ZM13.5518 14.4433L13.5541 14.4247C13.5539 14.2859 13.5009 14.1525 13.406 14.0513L12.1856 10.7847C12.1345 10.629 12.037 10.4926 11.9063 10.3938C11.7756 10.295 11.6179 10.2384 11.4541 10.2317C11.2892 10.2309 11.128 10.2805 10.9919 10.3736C10.8558 10.4668 10.7513 10.5992 10.6923 10.7532L8.75331 15.5073C8.69808 15.6426 8.69882 15.7942 8.75538 15.9288C8.81194 16.0635 8.91968 16.1702 9.05489 16.2254C9.19011 16.2806 9.34173 16.2799 9.4764 16.2233C9.61106 16.1668 9.71774 16.0591 9.77298 15.9238L10.1603 14.9753H12.5753L12.923 15.9087C12.9467 15.9784 12.9842 16.0427 13.0332 16.0977C13.0822 16.1528 13.1418 16.1974 13.2083 16.229C13.2749 16.2605 13.3472 16.2784 13.4208 16.2816C13.4944 16.2847 13.5679 16.2731 13.6369 16.2473C13.706 16.2216 13.7691 16.1822 13.8227 16.1316C13.8762 16.0809 13.919 16.0201 13.9486 15.9526C13.9782 15.8851 13.994 15.8124 13.995 15.7387C13.9959 15.665 13.9821 15.5919 13.9543 15.5237L13.5518 14.4433ZM9.67614 10.8523C9.67614 10.7065 9.61829 10.5666 9.51527 10.4634C9.41225 10.3601 9.27249 10.302 9.12664 10.3017H5.34081C5.19476 10.3017 5.0547 10.3597 4.95143 10.463C4.84816 10.5662 4.79014 10.7063 4.79014 10.8523C4.79014 10.9984 4.84816 11.1384 4.95143 11.2417C5.0547 11.345 5.19476 11.403 5.34081 11.403H6.69414V15.7617C6.69414 15.9077 6.75216 16.0478 6.85543 16.151C6.9587 16.2543 7.09876 16.3123 7.24481 16.3123C7.39086 16.3123 7.53092 16.2543 7.63419 16.151C7.73746 16.0478 7.79548 15.9077 7.79548 15.7617V11.403H9.12548C9.27152 11.403 9.41159 11.345 9.51486 11.2417C9.61813 11.1384 9.67614 10.9984 9.67614 10.8523Z" fill="black"/>
</svg>
