<svg width="30" height="31" viewBox="0 0 30 31" fill="none" xmlns="http://www.w3.org/2000/svg">
<path d="M24.5 26.75L16.625 18.875C16 19.375 15.2812 19.7708 14.4687 20.0625C13.6562 20.3542 12.7917 20.5 11.875 20.5C9.60417 20.5 7.6825 19.7133 6.11 18.14C4.5375 16.5667 3.75083 14.645 3.75 12.375C3.75 10.1042 4.53667 8.1825 6.11 6.61C7.68333 5.0375 9.605 4.25083 11.875 4.25C14.1458 4.25 16.0675 5.03667 17.64 6.61C19.2125 8.18333 19.9992 10.105 20 12.375C20 13.2917 19.8542 14.1562 19.5625 14.9687C19.2708 15.7812 18.875 16.5 18.375 17.125L26.25 25L24.5 26.75ZM11.875 18C13.4375 18 14.7658 17.4529 15.86 16.3588C16.9542 15.2646 17.5008 13.9367 17.5 12.375C17.5 10.8125 16.9529 9.48417 15.8588 8.39C14.7646 7.29583 13.4367 6.74917 11.875 6.75C10.3125 6.75 8.98417 7.29708 7.89 8.39125C6.79583 9.48542 6.24917 10.8133 6.25 12.375C6.25 13.9375 6.79708 15.2658 7.89125 16.36C8.98542 17.4542 10.3133 18.0008 11.875 18Z" fill="white"/>
</svg>
