<svg width="50" height="50" viewBox="0 0 50 50" fill="none" xmlns="http://www.w3.org/2000/svg">
<path d="M32.1437 26.7857C41.0197 26.7857 48.2151 23.5877 48.2151 19.6429C48.2151 15.698 41.0197 12.5 32.1437 12.5C23.2677 12.5 16.0723 15.698 16.0723 19.6429C16.0723 23.5877 23.2677 26.7857 32.1437 26.7857Z" stroke="#444444" stroke-width="2.5" stroke-linecap="round" stroke-linejoin="round"/>
<path d="M16.0723 19.6428V41.0714C16.0723 45 23.2151 48.2143 32.1437 48.2143C41.0723 48.2143 48.2151 45 48.2151 41.0714V19.6428" stroke="#444444" stroke-width="2.5" stroke-linecap="round" stroke-linejoin="round"/>
<path d="M48.2147 30.3572C48.2147 34.2857 41.0718 37.5 32.1433 37.5C23.2147 37.5 16.0718 34.2857 16.0718 30.3572M31.7861 5.35717C27.6129 2.78172 22.7552 1.53615 17.8576 1.78574C8.9647 1.78574 1.78613 5.00002 1.78613 8.9286C1.78613 11.0357 3.85756 12.9286 7.14328 14.2857" stroke="#444444" stroke-width="2.5" stroke-linecap="round" stroke-linejoin="round"/>
<path d="M7.14328 35.7144C3.85756 34.3573 1.78613 32.4644 1.78613 30.3573V8.92871" stroke="#444444" stroke-width="2.5" stroke-linecap="round" stroke-linejoin="round"/>
<path d="M7.14328 25C3.85756 23.6428 1.78613 21.75 1.78613 19.6428" stroke="#444444" stroke-width="2.5" stroke-linecap="round" stroke-linejoin="round"/>
</svg>
