<svg width="47" height="50" viewBox="0 0 47 50" fill="none" xmlns="http://www.w3.org/2000/svg">
<path d="M31.375 25H9.5V21.875H31.375V25ZM9.5 28.125H31.375V29.4922C30.7077 30.013 30.1217 30.599 29.6172 31.25H9.5V28.125ZM9.5 34.375H27.957C27.6315 35.4004 27.4688 36.4421 27.4688 37.5H9.5V34.375ZM3.25 46.875H24.7344C24.474 47.8678 24.3438 48.9095 24.3438 50H0.125V0H27.3467L40.75 13.4033V27.832C39.7246 27.5065 38.6829 27.3438 37.625 27.3438V15.625H25.125V3.125H3.25V46.875ZM28.25 12.5H35.4033L28.25 5.34668V12.5ZM42.1172 41.8213C42.8659 42.2282 43.5413 42.7246 44.1436 43.3105C44.7458 43.8965 45.2585 44.5394 45.6816 45.2393C46.1048 45.9391 46.4303 46.696 46.6582 47.5098C46.8861 48.3236 47 49.1536 47 50H43.875C43.875 49.1374 43.7122 48.3317 43.3867 47.583C43.0612 46.8343 42.6136 46.167 42.0439 45.5811C41.4743 44.9951 40.8151 44.5475 40.0664 44.2383C39.3177 43.929 38.5039 43.7663 37.625 43.75C36.7624 43.75 35.9567 43.9128 35.208 44.2383C34.4593 44.5638 33.792 45.0114 33.2061 45.5811C32.6201 46.1507 32.1725 46.8099 31.8633 47.5586C31.554 48.3073 31.3913 49.1211 31.375 50H28.25C28.25 49.1536 28.3639 48.3317 28.5918 47.5342C28.8197 46.7367 29.1452 45.9798 29.5684 45.2637C29.9915 44.5475 30.5042 43.8965 31.1064 43.3105C31.7087 42.7246 32.3841 42.2282 33.1328 41.8213C32.5794 41.2516 32.1481 40.5924 31.8389 39.8438C31.5296 39.0951 31.375 38.3138 31.375 37.5C31.375 36.6374 31.5378 35.8317 31.8633 35.083C32.1888 34.3343 32.6364 33.667 33.2061 33.0811C33.7757 32.4951 34.4349 32.0475 35.1836 31.7383C35.9323 31.429 36.7461 31.2663 37.625 31.25C38.4876 31.25 39.2933 31.4128 40.042 31.7383C40.7907 32.0638 41.458 32.5114 42.0439 33.0811C42.6299 33.6507 43.0775 34.3099 43.3867 35.0586C43.696 35.8073 43.8587 36.6211 43.875 37.5C43.875 38.3138 43.7204 39.0951 43.4111 39.8438C43.1019 40.5924 42.6706 41.2516 42.1172 41.8213ZM37.625 40.625C38.0645 40.625 38.4714 40.5436 38.8457 40.3809C39.2201 40.2181 39.5456 39.9984 39.8223 39.7217C40.099 39.445 40.3268 39.1113 40.5059 38.7207C40.6849 38.3301 40.7663 37.9232 40.75 37.5C40.75 37.0605 40.6686 36.6536 40.5059 36.2793C40.3431 35.9049 40.1234 35.5794 39.8467 35.3027C39.57 35.026 39.2363 34.7982 38.8457 34.6191C38.4551 34.4401 38.0482 34.3587 37.625 34.375C37.1855 34.375 36.7786 34.4564 36.4043 34.6191C36.0299 34.7819 35.7044 35.0016 35.4277 35.2783C35.151 35.555 34.9232 35.8887 34.7441 36.2793C34.5651 36.6699 34.4837 37.0768 34.5 37.5C34.5 37.9395 34.5814 38.3464 34.7441 38.7207C34.9069 39.0951 35.1266 39.4206 35.4033 39.6973C35.68 39.974 36.0137 40.2018 36.4043 40.3809C36.7949 40.5599 37.2018 40.6413 37.625 40.625Z" fill="#444444"/>
</svg>
